# xmcd CD database file
#
# Track frame offsets:
#	187
#	12927
#	38642
#	54549
#	76864
#	88719
#	103072
#	114939
#	126332
#	137304
#
# Disc length: 2074 seconds
#
# Revision: 5
# Processed by: cddbd v1.5PL3 Copyright (c) Steve Scherf et al.
# Submitted via: CDex 1.51
#
DISCID=7308180a
DTITLE=HARUOMI HOSONO - Tropical Dandy
DYEAR=1900
DGENRE=Pop
TTITLE0=Chattanooga Choo Choo
TTITLE1=Hurricane Dorothy
TTITLE2=絹街道
TTITLE3=熱帯夜
TTITLE4=北京Duck
TTITLE5=漂流記
TTITLE6=Honey Moon
TTITLE7=三時の子守歌
TTITLE8=三時の子守歌 (instrumental)
TTITLE9=漂流記 (instrumental)
EXTD=
EXTT0=
EXTT1=
EXTT2=
EXTT3=
EXTT4=
EXTT5=
EXTT6=
EXTT7=
EXTT8=
EXTT9=
PLAYORDER=
